<?xml version="1.0" encoding="UTF-8" standalone="no"?>
<!-- Created with Inkscape (http://www.inkscape.org/) -->

<svg
   width="297mm"
   height="210mm"
   viewBox="0 0 297 210"
   version="1.1"
   id="svg5057"
   xml:space="preserve"
   inkscape:version="1.2 (dc2aedaf03, 2022-05-15)"
   sodipodi:docname="Enemy_rat_left.svg"
   inkscape:export-filename="Courier_F_left.png"
   inkscape:export-xdpi="96"
   inkscape:export-ydpi="96"
   xmlns:inkscape="http://www.inkscape.org/namespaces/inkscape"
   xmlns:sodipodi="http://sodipodi.sourceforge.net/DTD/sodipodi-0.dtd"
   xmlns="http://www.w3.org/2000/svg"
   xmlns:svg="http://www.w3.org/2000/svg"><sodipodi:namedview
     id="namedview5059"
     pagecolor="#ffffff"
     bordercolor="#666666"
     borderopacity="1.0"
     inkscape:showpageshadow="2"
     inkscape:pageopacity="0.0"
     inkscape:pagecheckerboard="0"
     inkscape:deskcolor="#d1d1d1"
     inkscape:document-units="mm"
     showgrid="false"
     inkscape:zoom="0.85147976"
     inkscape:cx="660.02744"
     inkscape:cy="361.13601"
     inkscape:window-width="1920"
     inkscape:window-height="1001"
     inkscape:window-x="-9"
     inkscape:window-y="-9"
     inkscape:window-maximized="1"
     inkscape:current-layer="layer2"
     showguides="true" /><defs
     id="defs5054"><linearGradient
       id="linearGradient13206"
       inkscape:swatch="solid"><stop
         style="stop-color:#ad7ba5;stop-opacity:1;"
         offset="0"
         id="stop13204" /></linearGradient><linearGradient
       id="linearGradient1185"
       inkscape:swatch="solid"><stop
         style="stop-color:#f2f2f2;stop-opacity:1;"
         offset="0"
         id="stop1183" /></linearGradient><rect
       x="132.29021"
       y="425.21854"
       width="485.69409"
       height="313.7168"
       id="rect1194" /><rect
       x="128.28796"
       y="485.08887"
       width="268.56244"
       height="118.93363"
       id="rect1640" /><rect
       x="132.29021"
       y="425.21854"
       width="485.69409"
       height="313.7168"
       id="rect1194-6" /><rect
       x="128.28796"
       y="485.08887"
       width="268.56244"
       height="118.93363"
       id="rect1640-5" /><rect
       x="132.29021"
       y="425.21854"
       width="485.69409"
       height="313.7168"
       id="rect1194-4" /><rect
       x="128.28796"
       y="485.08887"
       width="268.56244"
       height="118.93363"
       id="rect1640-7" /><filter
       id="mask-powermask-path-effect924_inverse"
       inkscape:label="filtermask-powermask-path-effect924"
       style="color-interpolation-filters:sRGB"
       height="100"
       width="100"
       x="-50"
       y="-50"><feColorMatrix
         id="mask-powermask-path-effect924_primitive1"
         values="1"
         type="saturate"
         result="fbSourceGraphic" /><feColorMatrix
         id="mask-powermask-path-effect924_primitive2"
         values="-1 0 0 0 1 0 -1 0 0 1 0 0 -1 0 1 0 0 0 1 0 "
         in="fbSourceGraphic" /></filter></defs><g
     inkscape:groupmode="layer"
     id="layer3-0-8"
     inkscape:label="Leg_B_B"
     transform="translate(-6.146862,-35.283045)"><path
       style="fill:#ffd97b;fill-opacity:1;stroke:#000000;stroke-width:0.79375;stroke-linecap:butt;stroke-linejoin:miter;stroke-dasharray:none;stroke-opacity:1"
       d="m 122.2986,182.49686 c 4.34167,-6.212 13.00422,-0.0248 12.19456,2.96625 8.00638,-2.10655 12.31556,-0.28992 18.70249,3.06919 2.20923,3.63374 -15.31391,14.41384 -12.82493,16.0466 10.89654,2.93363 14.55033,-0.92798 24.66377,0.43944 3.1549,-0.0464 6.84653,-0.76371 6.77463,2.5388 -1.83501,-1.94906 -3.17531,-0.37769 -6.33094,0.0138 4.61512,0.0545 6.23441,0.0228 7.5526,3.31139 -4.51936,-2.25866 -5.36703,-1.99618 -7.44698,-1.68932 4.01848,0.06 5.14296,1.08557 6.15206,3.26554 -1.64438,-1.56222 -6.0373,-2.25947 -8.67887,-1.61763 -2.13175,1.27716 -4.36961,1.27364 -6.81137,-0.5493 -6.97773,-0.98932 -11.17595,-0.89662 -18.67635,0.98875 -2.90581,1.47223 -2.34825,-1.83272 -5.82007,-4.88853 -0.47857,-1.26038 12.91596,-13.50064 11.58685,-13.27869 -12.98345,2.16811 -22.42982,-0.87104 -21.03745,-10.61633 z"
       id="path4574-6-9"
       sodipodi:nodetypes="ccccccccccccccsc" /></g><g
     inkscape:groupmode="layer"
     id="layer1"
     inkscape:label="Body"><g
       inkscape:groupmode="layer"
       id="layer3-4"
       inkscape:label="Leg_B_F"
       transform="translate(3.1057289,-4.2940746)"><path
         style="fill:#ffd97b;fill-opacity:1;stroke:#000000;stroke-width:0.79375;stroke-linecap:butt;stroke-linejoin:miter;stroke-dasharray:none;stroke-opacity:1"
         d="m 169.62523,157.43067 c 3.70385,-5.84753 5.71266,-1.75929 8.01984,-0.5493 l 1.20847,19.66509 c 10.89654,2.93363 13.06721,-0.15894 23.18065,1.20848 3.1549,-0.0464 6.45811,3.35351 6.38621,6.65602 -1.83501,-1.94906 -1.65025,-3.74392 -4.80588,-3.35239 3.79944,1.84119 3.79405,3.67817 5.11224,6.96675 -2.1963,-2.25866 -4.11824,-4.56236 -6.91229,-5.32664 2.81439,2.54583 2.37868,5.19323 1.95959,7.84011 -0.8849,-2.41449 -1.1881,-4.86319 -3.71737,-7.18095 -2.13175,1.27716 -4.36961,1.49336 -6.81137,-0.32958 -6.97773,-0.98932 -3.92513,-3.53329 -11.42553,-1.64792 -2.9114,1.47456 -7.0734,1.97492 -8.12971,-2.08735 z"
         id="path4574-4"
         sodipodi:nodetypes="cccccccccccccc" /></g><path
       style="fill:#ffd97b;fill-opacity:1;stroke:#000000;stroke-width:0.79375;stroke-linecap:butt;stroke-linejoin:miter;stroke-dasharray:none;stroke-opacity:1"
       d="m 110.19048,143.03889 c -20.288786,22.1395 -45.048412,35.72052 -85.691499,18.89607 -7.150132,-2.36008 -1.716492,2.78805 0.21972,3.73527 28.625212,10.39371 57.444839,13.69125 87.229549,-18.23691 z"
       id="path3842"
       sodipodi:nodetypes="ccccc" /><path
       style="fill:#ffd97b;fill-opacity:1;stroke:#000000;stroke-width:0.79375;stroke-linecap:butt;stroke-linejoin:miter;stroke-dasharray:none;stroke-opacity:1"
       d="m 200.03322,149.43383 c -28.85357,-9.70634 -73.60269,-24.25571 -91.82176,-4.50564 -3.1928,2.29518 -3.97656,6.35428 0.94839,6.39072 0.64774,3.24723 1.79367,6.14942 4.33407,8.21375 3.21092,1.74521 6.42183,4.54505 9.63274,-0.4661 0.71042,-2.07826 2.04472,-1.66102 2.01977,-6.68077 4.94854,-5.49009 9.03959,-8.16983 15.69662,-5.67506 16.55513,0.18487 29.06861,29.89318 46.76083,17.94904 l 4.661,-6.5254 8.3898,-0.93221 z"
       id="path1622"
       sodipodi:nodetypes="ccccccccccc" /><path
       style="fill:#9d864c;fill-opacity:1;stroke:none;stroke-width:0.264583px;stroke-linecap:butt;stroke-linejoin:miter;stroke-opacity:1"
       d="m 192.06522,157.72776 c -0.0278,0.009 -4.82748,6.56219 -4.85498,6.57209 -0.4826,0.17554 -0.92229,0.48742 -1.43196,0.39871 0.39506,-2.38936 1.24953,-4.64089 2.68007,-6.71961 l -1.3983,0.0777 c -1.71414,2.09941 -2.17453,4.51226 -2.68007,6.91382 -0.60935,0.41375 -1.22698,0.95188 -1.78672,0.62147 0.46808,-2.75151 0.80363,-5.52712 2.36934,-8.07907 0,0 -1.17899,0.053 -1.55367,0.15537 -1.15679,0.31611 -2.91135,8.09131 -2.48587,8.11791 -0.68537,0.005 -1.33036,-0.0641 -1.70903,-0.62147 0.31468,-2.40565 0.10556,-4.9568 2.17514,-6.87498 l -1.43715,-0.23305 c -1.81622,1.91547 -2.01948,4.15353 -2.3305,6.37004 -0.60891,-0.0701 -1.18825,-0.22158 -1.59251,-0.85452 0.21923,-1.78672 0.0922,-3.57343 1.78672,-5.36015 l -1.51482,-0.19421 c -1.29288,1.421 -1.74335,2.99517 -1.90326,4.62216 -0.72079,-0.35276 -1.43964,-0.70698 -1.55366,-1.51482 -0.048,-1.58575 -0.10477,-2.99483 1.5925,-4.27259 l -1.43713,-0.50494 c -1.35294,1.13181 -1.71413,2.15702 -1.82556,3.49575 -0.56682,-0.34686 -1.1383,-0.69023 -1.3012,-1.34004 -0.10375,-1.07837 0.46316,-2.22869 1.80614,-2.8937 l -1.18467,-0.34958 c -1.07762,0.50658 -1.81975,1.14018 -1.85687,1.96932 -0.77799,-0.1841 -1.32762,-0.30178 -1.45804,-0.59863 -1.18688,-0.67226 0.48312,-2.91689 0.89935,-2.75694 0.13495,0.0519 -0.62483,-0.33364 -1.14275,-0.57603 -1.15873,0.36713 -2.02212,2.62393 -1.96686,2.63042 -8.07435,-5.35718 -15.94188,-9.22853 -22.20681,-10.80941 -11.46983,-3.44468 -15.09395,1.58185 -18.00183,7.20876 5.28652,-5.84454 9.87261,-8.43576 16.02581,-6.03612 9.60507,0.53396 16.2504,8.27379 24.05654,14.25109 14.83236,12.45762 22.50526,3.86007 22.55731,3.72878 z"
       id="path6585"
       sodipodi:nodetypes="csccccccsccccccccccccccccccscccccccc" /><path
       style="fill:#9d864c;fill-opacity:1;stroke:none;stroke-width:0.264583px;stroke-linecap:butt;stroke-linejoin:miter;stroke-opacity:1"
       d="m 192.02312,157.76026 0.57873,-1.0521 2.45578,-0.23796 -0.37038,0.9948 z"
       id="path534"
       sodipodi:nodetypes="ccccc" /></g><g
     inkscape:groupmode="layer"
     id="layer3"
     inkscape:label="Leg_F_F"
     style="display:inline"><path
       style="fill:#ffd97b;fill-opacity:1;stroke:#000000;stroke-width:0.79375;stroke-linecap:butt;stroke-linejoin:miter;stroke-dasharray:none;stroke-opacity:1"
       d="m 169.62523,157.43067 c 3.70385,-5.84753 5.71266,-1.75929 8.01984,-0.5493 l 1.20847,19.66509 c 10.89654,2.93363 13.06721,-0.15894 23.18065,1.20848 3.1549,-0.0464 6.45811,3.35351 6.38621,6.65602 -1.83501,-1.94906 -1.65025,-3.74392 -4.80588,-3.35239 3.79944,1.84119 3.79405,3.67817 5.11224,6.96675 -2.1963,-2.25866 -4.11824,-4.56236 -6.91229,-5.32664 2.81439,2.54583 2.37868,5.19323 1.95959,7.84011 -0.8849,-2.41449 -1.1881,-4.86319 -3.71737,-7.18095 -2.13175,1.27716 -4.36961,1.49336 -6.81137,-0.32958 -6.97773,-0.98932 -3.92513,-3.53329 -11.42553,-1.64792 -2.9114,1.47456 -7.0734,1.97492 -8.12971,-2.08735 z"
       id="path4574"
       sodipodi:nodetypes="cccccccccccccc" /></g><g
     inkscape:groupmode="layer"
     id="layer3-0"
     inkscape:label="Leg_F_B"
     transform="translate(-11.399682,-32.308604)"
     style="display:inline"><path
       style="fill:#ffd97b;fill-opacity:1;stroke:#000000;stroke-width:0.79375;stroke-linecap:butt;stroke-linejoin:miter;stroke-dasharray:none;stroke-opacity:1"
       d="m 122.2986,182.49686 c 4.34167,-6.212 13.00422,-0.0248 12.19456,2.96625 8.00638,-2.10655 12.31556,-0.28992 18.70249,3.06919 2.20923,3.63374 -15.31391,14.41384 -12.82493,16.0466 10.89654,2.93363 16.96727,2.14813 27.08071,3.51555 3.1549,-0.0464 7.15726,0.94532 7.08536,4.24783 -1.83501,-1.94906 -3.48604,-2.08672 -6.64167,-1.69519 4.61512,0.0545 6.19557,0.87733 7.51376,4.16591 -4.51936,-2.25866 -5.32819,-2.8507 -7.40814,-2.54384 4.01848,0.06 5.10412,2.1343 6.11322,4.31427 -1.64438,-1.56222 -5.99846,-3.3082 -8.64003,-2.66636 -2.13175,1.27716 -4.36961,1.27364 -6.81137,-0.5493 -6.97773,-0.98932 -13.59289,-3.97273 -21.09329,-2.08736 -2.90581,1.47223 -2.34825,-1.83272 -5.82007,-4.88853 -0.47857,-1.26038 12.91596,-13.50064 11.58685,-13.27869 -12.98345,2.16811 -22.42982,-0.87104 -21.03745,-10.61633 z"
       id="path4574-6"
       sodipodi:nodetypes="ccccccccccccccsc" /></g><g
     inkscape:groupmode="layer"
     id="layer2"
     inkscape:label="Head"><path
       style="fill:#ffd97b;fill-opacity:1;stroke:#000000;stroke-width:0.79375;stroke-linecap:butt;stroke-linejoin:miter;stroke-dasharray:none;stroke-opacity:1"
       d="m 211.07058,141.58873 c -16.52671,-22.79403 -29.90215,4.2369 -3.53459,8.50633"
       id="path9229-7"
       sodipodi:nodetypes="cc" /><path
       style="fill:#9ba440;fill-opacity:1;stroke:#000000;stroke-width:0.79375;stroke-linecap:butt;stroke-linejoin:miter;stroke-dasharray:none;stroke-opacity:1"
       d="m 250.25248,169.3538 c 5.19101,-2.85333 11.58338,-24.16581 7.22564,-28.21389 8.29841,8.78442 0.38614,27.23891 -5.3439,28.77674 z"
       id="path1265"
       sodipodi:nodetypes="cccc" /><path
       style="fill:#8a9239;fill-opacity:1;stroke:#000000;stroke-width:0.79375;stroke-linecap:butt;stroke-linejoin:miter;stroke-dasharray:none;stroke-opacity:1"
       d="m 226.49526,161.98809 c 0.0584,-2.17945 -0.59367,-4.75777 -0.94258,-7.16589 0.87943,2.32279 2.60927,4.69213 2.007,6.93379 z"
       id="path1265-5-14-7"
       sodipodi:nodetypes="cccc" /><path
       style="fill:#920000;fill-opacity:1;stroke:#000000;stroke-width:0.79375;stroke-linecap:butt;stroke-linejoin:miter;stroke-dasharray:none;stroke-opacity:1"
       d="m 233.74937,166.13879 c 3.8419,-0.94287 7.6838,-1.41047 11.5257,-3.14257 2.54683,1.99543 1.84725,4.84265 2.21105,7.41086 z"
       id="path1289"
       sodipodi:nodetypes="cccc" /><path
       style="fill:#8a9239;fill-opacity:1;stroke:#000000;stroke-width:0.79375;stroke-linecap:butt;stroke-linejoin:miter;stroke-dasharray:none;stroke-opacity:1"
       d="m 243.47616,163.8767 c 0.28092,-2.9664 -0.46687,-6.48418 -0.77569,-9.76668 1.11085,3.17256 3.49105,6.4185 2.39024,9.46321 z"
       id="path1265-5-1"
       sodipodi:nodetypes="cccc" /><path
       style="fill:#8a9239;fill-opacity:1;stroke:#000000;stroke-width:0.79375;stroke-linecap:butt;stroke-linejoin:miter;stroke-dasharray:none;stroke-opacity:1"
       d="m 242.97885,164.78916 c -0.28203,-3.61888 -1.88952,-7.69272 -2.93141,-11.57242 1.96376,3.58614 5.43761,7.0047 4.77022,10.88278 -0.53564,0.69364 -1.15678,0.87431 -1.83881,0.68964 z"
       id="path1265-5-2"
       sodipodi:nodetypes="cccc" /><path
       style="fill:#920000;fill-opacity:1;stroke:#000000;stroke-width:0.79375;stroke-linecap:butt;stroke-linejoin:miter;stroke-dasharray:none;stroke-opacity:1"
       d="m 220.93251,163.15917 c 2.62966,-0.64707 5.41785,-0.81999 7.65093,-2.6533 2.27558,3.29695 1.52607,7.10383 -1.26407,5.43927 z"
       id="path1350"
       sodipodi:nodetypes="cccc" /><path
       style="fill:#8a9239;fill-opacity:1;stroke:#000000;stroke-width:0.79375;stroke-linecap:butt;stroke-linejoin:miter;stroke-dasharray:none;stroke-opacity:1"
       d="m 227.64238,162.50188 c 0.0584,-2.17945 -0.59368,-4.75778 -0.94259,-7.1659 0.87943,2.3228 2.60928,4.69214 2.00701,6.9338 -0.35481,0.92347 -0.70961,0.30688 -1.06442,0.2321 z"
       id="path1265-5-14"
       sodipodi:nodetypes="cccc" /><path
       style="fill:#8a9239;fill-opacity:1;stroke:#000000;stroke-width:0.79375;stroke-linecap:butt;stroke-linejoin:miter;stroke-dasharray:none;stroke-opacity:1"
       d="m 226.96777,163.35242 c -0.23614,-2.16748 -1.2302,-4.6349 -1.90085,-6.97433 1.18483,2.18372 3.21863,4.29951 2.92429,6.60158 -0.25668,0.4621 -0.54938,0.78017 -1.02344,0.37275 z"
       id="path1265-5-14-8"
       sodipodi:nodetypes="cccc" /><path
       style="fill:#8a9239;fill-opacity:1;stroke:#000000;stroke-width:0.79375;stroke-linecap:butt;stroke-linejoin:miter;stroke-dasharray:none;stroke-opacity:1"
       d="m 236.80957,146.50265 c 0.61664,3.5764 -1.99736,4.04495 -3.72107,7.58381 3.0863,-2.39669 7.36105,-3.70416 5.67149,-7.34893 z"
       id="path1265-5-4"
       sodipodi:nodetypes="cccc" /><path
       style="fill:#8a9239;fill-opacity:1;stroke:#000000;stroke-width:0.79375;stroke-linecap:butt;stroke-linejoin:miter;stroke-dasharray:none;stroke-opacity:1"
       d="m 238.29697,146.68499 c 1.20913,3.42375 -1.55801,7.84731 -2.20981,11.46793 1.74314,-3.00029 6.3539,-8.29996 4.17129,-11.57817 z"
       id="path1265-5-4-4"
       sodipodi:nodetypes="cccc" /><path
       style="fill:#9ba440;fill-opacity:1;stroke:#000000;stroke-width:0.79375;stroke-linecap:butt;stroke-linejoin:miter;stroke-dasharray:none;stroke-opacity:1"
       d="m 246.84597,170.23212 c 6.70228,-0.62458 8.80858,-20.77014 2.04074,-28.07674 9.51279,8.90145 9.80311,26.51156 3.80465,27.65107 z"
       id="path1265-7"
       sodipodi:nodetypes="cccc" /><path
       style="fill:#676767;fill-opacity:1;stroke:#000000;stroke-width:0.79375;stroke-linecap:butt;stroke-linejoin:miter;stroke-dasharray:none;stroke-opacity:1"
       d="m 255.14502,171.22997 c 1.62776,-0.74165 2.92415,-4.35235 2.43235,-5.1172 -0.29279,-0.45535 -1.72164,0.74893 -2.65998,0.54493 -11.94643,-0.90628 -25.45861,1.67116 -35.9019,-5.93427 4.54655,-5.23822 7.27175,-15.18758 17.97722,-12.99638 8.52319,2.5914 3.30214,-3.25798 1.25872,-2.97203 -10.52773,-0.77248 -23.26012,-12.9047 -33.81752,-3.7424 -8.69038,9.18707 -10.88888,12.54267 -12.08965,25.0616 3.07786,7.51002 11.2459,5.3568 16.89535,4.72531 14.27963,2.38808 30.56704,1.93245 45.90541,0.43044 z"
       id="path495"
       sodipodi:nodetypes="cscccccccc" /><ellipse
       style="fill:#ffffff;fill-opacity:1;stroke:#000000;stroke-width:0.794;stroke-opacity:1;stroke-dasharray:none"
       id="path645"
       cx="217.31659"
       cy="146.0695"
       rx="4.2498107"
       ry="4.2374754" /><path
       style="fill:#8a9239;fill-opacity:1;stroke:#000000;stroke-width:0.79375;stroke-linecap:butt;stroke-linejoin:miter;stroke-dasharray:none;stroke-opacity:1"
       d="m 240.95012,165.76959 c -0.28202,-3.61889 -1.20932,-5.09305 -2.25122,-8.97275 1.96376,3.58613 4.75742,4.40503 4.09004,8.28311 -0.51287,0.63017 -1.18498,0.62334 -1.83882,0.68964 z"
       id="path1265-5-2-5"
       sodipodi:nodetypes="cccc" /><path
       style="fill:#ffd97b;fill-opacity:1;stroke:#000000;stroke-width:0.79375;stroke-linecap:butt;stroke-linejoin:miter;stroke-dasharray:none;stroke-opacity:1"
       d="m 202.82982,146.63722 c -16.21598,-26.36747 -26.48408,6.25667 -5.55436,6.95266"
       id="path9229"
       sodipodi:nodetypes="cc" /><path
       style="fill:#161616;fill-opacity:1;stroke:#000000;stroke-width:0.793753;stroke-linecap:butt;stroke-linejoin:miter;stroke-dasharray:none;stroke-opacity:1"
       d="m 238.84023,144.86672 c 4.36751,-3.16635 7.8132,-1.78043 5.64466,0.66134 -0.70909,-0.0548 -0.60156,-0.71793 -2.12518,0.6561 -1.55681,1.5809 -4.42864,-0.23544 -3.51948,-1.31744 z"
       id="path10259"
       sodipodi:nodetypes="cccc" /><path
       style="fill:#454545;fill-opacity:1;stroke:none;stroke-width:0.264583px;stroke-linecap:butt;stroke-linejoin:miter;stroke-opacity:1"
       d="m 192.70835,165.99911 c -1.38399,-2.90502 43.29923,7.78797 63.31196,3.89504 -0.19547,0.31797 -0.34069,0.6325 -1.01011,1.15635 -13.72039,1.21164 -30.91037,2.23984 -45.72173,-0.54877 -6.52116,0.94587 -13.39986,2.50289 -16.58012,-4.50262 z"
       id="path1091"
       sodipodi:nodetypes="ccccc" /><path
       style="fill:#9d864c;fill-opacity:1;stroke:none;stroke-width:0.79375;stroke-linecap:butt;stroke-linejoin:miter;stroke-dasharray:none;stroke-opacity:1"
       d="m 202.12523,147.8976 c -14.15457,-21.33106 -23.11737,5.06159 -4.84828,5.62464"
       id="path9229-8"
       sodipodi:nodetypes="cc" /></g></svg>
